<?xml version="1.0" encoding="UTF-8"?>
<svg id="Layer_1" xmlns="http://www.w3.org/2000/svg" viewBox="0 0 807.44 472.58">
  <defs>
    <style>
      .cls-1, .cls-2 {
        fill: #fff;
      }

      .cls-2 {
        fill-rule: evenodd;
      }
    </style>
  </defs>
  <g>
    <path class="cls-1" d="M182.66,219.62v15.54c0,3.56,2.88,6.44,6.44,6.44h169.52c3.55,0,6.44,2.89,6.44,6.44v45.85c0,3.56-2.89,6.44-6.44,6.44h-169.52c-3.56,0-6.44,2.88-6.44,6.44v15.55c0,3.56,2.88,6.44,6.44,6.44h169.52c3.55,0,6.44,2.88,6.44,6.44v49.21c0,3.56-2.89,6.44-6.44,6.44H110.26c-1.45,0-2.78-.48-3.86-1.3-1.57-1.15-2.59-3.03-2.59-5.14v-226.89c0-3.56,2.89-6.44,6.45-6.44h248.36c3.55,0,6.44,2.88,6.44,6.44v49.21c0,1.45-.47,2.78-1.29,3.85-1.17,1.57-3.04,2.59-5.15,2.59h-169.52c-3.56,0-6.44,2.89-6.44,6.45Z"/>
    <path class="cls-1" d="M182.66,219.62v15.54c0,3.56,2.88,6.44,6.44,6.44h169.52c3.55,0,6.44,2.89,6.44,6.44v45.85c0,3.56-2.89,6.44-6.44,6.44h-169.52c-3.56,0-6.44,2.88-6.44,6.44v15.55c0,3.56,2.88,6.44,6.44,6.44h169.52c3.55,0,6.44,2.88,6.44,6.44v49.21c0,3.56-2.89,6.44-6.44,6.44H110.26c-1.45,0-2.78-.48-3.86-1.3-1.57-1.15-2.59-3.03-2.59-5.14v-226.89c0-3.56,2.89-6.44,6.45-6.44h248.36c3.55,0,6.44,2.88,6.44,6.44v49.21c0,1.45-.47,2.78-1.29,3.85-1.17,1.57-3.04,2.59-5.15,2.59h-169.52c-3.56,0-6.44,2.89-6.44,6.45Z"/>
    <path class="cls-1" d="M182.66,219.62v15.54c0,3.56,2.88,6.44,6.44,6.44h169.52c3.55,0,6.44,2.89,6.44,6.44v45.85c0,3.56-2.89,6.44-6.44,6.44h-169.52c-3.56,0-6.44,2.88-6.44,6.44v15.55c0,3.56,2.88,6.44,6.44,6.44h169.52c3.55,0,6.44,2.88,6.44,6.44v49.21c0,3.56-2.89,6.44-6.44,6.44H110.26c-1.45,0-2.78-.48-3.86-1.3-1.57-1.15-2.59-3.03-2.59-5.14v-226.89c0-3.56,2.89-6.44,6.45-6.44h248.36c3.55,0,6.44,2.88,6.44,6.44v49.21c0,1.45-.47,2.78-1.29,3.85-1.17,1.57-3.04,2.59-5.15,2.59h-169.52c-3.56,0-6.44,2.89-6.44,6.45Z"/>
    <path class="cls-1" d="M182.66,219.62v15.54c0,3.56,2.88,6.44,6.44,6.44h169.52c3.55,0,6.44,2.89,6.44,6.44v45.85c0,3.56-2.89,6.44-6.44,6.44h-169.52c-3.56,0-6.44,2.88-6.44,6.44v15.55c0,3.56,2.88,6.44,6.44,6.44h169.52c3.55,0,6.44,2.88,6.44,6.44v49.21c0,3.56-2.89,6.44-6.44,6.44H110.26c-1.45,0-2.78-.48-3.86-1.3-1.57-1.15-2.59-3.03-2.59-5.14v-226.89c0-3.56,2.89-6.44,6.45-6.44h248.36c3.55,0,6.44,2.88,6.44,6.44v49.21c0,1.45-.47,2.78-1.29,3.85-1.17,1.57-3.04,2.59-5.15,2.59h-169.52c-3.56,0-6.44,2.89-6.44,6.45Z"/>
    <path class="cls-1" d="M182.66,219.62v15.54c0,3.56,2.88,6.44,6.44,6.44h169.52c3.55,0,6.44,2.89,6.44,6.44v45.85c0,3.56-2.89,6.44-6.44,6.44h-169.52c-3.56,0-6.44,2.88-6.44,6.44v15.55c0,3.56,2.88,6.44,6.44,6.44h169.52c3.55,0,6.44,2.88,6.44,6.44v49.21c0,3.56-2.89,6.44-6.44,6.44H110.26c-1.45,0-2.78-.48-3.86-1.3-1.57-1.15-2.59-3.03-2.59-5.14v-226.89c0-3.56,2.89-6.44,6.45-6.44h248.36c3.55,0,6.44,2.88,6.44,6.44v49.21c0,1.45-.47,2.78-1.29,3.85-1.17,1.57-3.04,2.59-5.15,2.59h-169.52c-3.56,0-6.44,2.89-6.44,6.45Z"/>
    <path class="cls-1" d="M189.1,213.17h169.52c2.11,0,3.98-1.02,5.15-2.59.82-1.07,1.29-2.4,1.29-3.85v-49.21c0-3.56-2.89-6.44-6.44-6.44H110.26c-3.56,0-6.45,2.88-6.45,6.44v226.89c0,2.11,1.02,3.99,2.59,5.14,1.08.82,2.41,1.3,3.86,1.3h248.36c3.55,0,6.44-2.88,6.44-6.44v-49.21c0-3.56-2.89-6.44-6.44-6.44h-169.52c-3.56,0-6.44-2.88-6.44-6.44v-15.55c0-3.56,2.88-6.44,6.44-6.44h169.52c3.55,0,6.44-2.88,6.44-6.44v-45.85c0-3.55-2.89-6.44-6.44-6.44h-169.52c-3.56,0-6.44-2.88-6.44-6.44v-15.54c0-3.56,2.88-6.45,6.44-6.45Z"/>
    <path class="cls-1" d="M678.23,157.52v52.58c0,3.56-2.88,6.44-6.44,6.44h-178.59c-3.56,0-6.44,2.88-6.44,6.44v30.51c0,3.56,2.88,6.44,6.44,6.44h160.45c3.55,0,6.44,2.89,6.44,6.44v52.58c0,3.56-2.89,6.44-6.44,6.44h-160.45c-3.56,0-6.44,2.89-6.44,6.44v52.58c0,3.56-2.88,6.44-6.44,6.44h-65.96c-3.56,0-6.44-2.88-6.44-6.44v-226.89c0-3.56,2.88-6.44,6.44-6.44h257.43c3.56,0,6.44,2.88,6.44,6.44Z"/>
    <path class="cls-1" d="M678.23,157.52v52.58c0,3.56-2.88,6.44-6.44,6.44h-178.59c-3.56,0-6.44,2.88-6.44,6.44v30.51c0,3.56,2.88,6.44,6.44,6.44h160.45c3.55,0,6.44,2.89,6.44,6.44v52.58c0,3.56-2.89,6.44-6.44,6.44h-160.45c-3.56,0-6.44,2.89-6.44,6.44v52.58c0,3.56-2.88,6.44-6.44,6.44h-65.96c-3.56,0-6.44-2.88-6.44-6.44v-226.89c0-3.56,2.88-6.44,6.44-6.44h257.43c3.56,0,6.44,2.88,6.44,6.44Z"/>
    <path class="cls-1" d="M678.23,157.52v52.58c0,3.56-2.88,6.44-6.44,6.44h-178.59c-3.56,0-6.44,2.88-6.44,6.44v30.51c0,3.56,2.88,6.44,6.44,6.44h160.45c3.55,0,6.44,2.89,6.44,6.44v52.58c0,3.56-2.89,6.44-6.44,6.44h-160.45c-3.56,0-6.44,2.89-6.44,6.44v52.58c0,3.56-2.88,6.44-6.44,6.44h-65.96c-3.56,0-6.44-2.88-6.44-6.44v-226.89c0-3.56,2.88-6.44,6.44-6.44h257.43c3.56,0,6.44,2.88,6.44,6.44Z"/>
    <path class="cls-1" d="M678.23,157.52v52.58c0,3.56-2.88,6.44-6.44,6.44h-178.59c-3.56,0-6.44,2.88-6.44,6.44v30.51c0,3.56,2.88,6.44,6.44,6.44h160.45c3.55,0,6.44,2.89,6.44,6.44v52.58c0,3.56-2.89,6.44-6.44,6.44h-160.45c-3.56,0-6.44,2.89-6.44,6.44v52.58c0,3.56-2.88,6.44-6.44,6.44h-65.96c-3.56,0-6.44-2.88-6.44-6.44v-226.89c0-3.56,2.88-6.44,6.44-6.44h257.43c3.56,0,6.44,2.88,6.44,6.44Z"/>
    <path class="cls-1" d="M678.23,157.52v52.58c0,3.56-2.88,6.44-6.44,6.44h-178.59c-3.56,0-6.44,2.88-6.44,6.44v30.51c0,3.56,2.88,6.44,6.44,6.44h160.45c3.55,0,6.44,2.89,6.44,6.44v52.58c0,3.56-2.89,6.44-6.44,6.44h-160.45c-3.56,0-6.44,2.89-6.44,6.44v52.58c0,3.56-2.88,6.44-6.44,6.44h-65.96c-3.56,0-6.44-2.88-6.44-6.44v-226.89c0-3.56,2.88-6.44,6.44-6.44h257.43c3.56,0,6.44,2.88,6.44,6.44Z"/>
    <path class="cls-1" d="M671.79,151.08h-257.43c-3.56,0-6.44,2.88-6.44,6.44v226.89c0,3.56,2.88,6.44,6.44,6.44h65.96c3.56,0,6.44-2.88,6.44-6.44v-52.58c0-3.55,2.88-6.44,6.44-6.44h160.45c3.55,0,6.44-2.88,6.44-6.44v-52.58c0-3.55-2.89-6.44-6.44-6.44h-160.45c-3.56,0-6.44-2.88-6.44-6.44v-30.51c0-3.56,2.88-6.44,6.44-6.44h178.59c3.56,0,6.44-2.88,6.44-6.44v-52.58c0-3.56-2.88-6.44-6.44-6.44Z"/>
  </g>
  <g>
    <path class="cls-1" d="M164.72,456.32c0,1.71-.15,3.25-.45,4.63-.31,1.37-.79,2.57-1.46,3.61-.66,1.04-1.41,1.94-2.26,2.72-.84.77-1.89,1.43-3.14,1.96-1.25.53-2.53.96-3.83,1.31-1.31.35-2.85.62-4.64.8-1.79.18-3.54.3-5.24.37-1.7.07-3.66.1-5.89.1h-30.29v-7.87c0-2.97,1.23-4.45,3.68-4.45h25.56c2.01,0,3.6-.02,4.8-.04,1.19-.02,2.33-.07,3.43-.15,1.09-.08,1.9-.18,2.43-.31.53-.12,1-.31,1.41-.57.42-.26.69-.55.82-.88.12-.32.18-.73.18-1.23,0-.7-.39-1.25-1.16-1.67-.78-.42-1.83-.7-3.16-.86-1.33-.16-2.88-.29-4.66-.41-1.78-.11-3.66-.18-5.66-.22-1.99-.03-4.04-.15-6.16-.37-2.12-.21-4.17-.47-6.16-.77-1.99-.31-3.88-.82-5.66-1.52-.34-.13-.66-.27-.98-.42-.38-.16-.74-.34-1.1-.53h-.01s-.1-.05-.14-.08c-.19-.09-.37-.19-.54-.3-.23-.12-.45-.25-.66-.39-.15-.09-.29-.18-.43-.27-.1-.07-.2-.13-.29-.2-.17-.12-.34-.24-.51-.36-.2-.15-.39-.31-.58-.47-.15-.13-.3-.27-.44-.42h-.01c-.09-.08-.18-.17-.26-.26-.19-.2-.36-.4-.53-.62-.16-.19-.3-.39-.44-.59-.1-.15-.2-.3-.29-.45-.22-.35-.42-.71-.6-1.09-.78-1.61-1.17-3.46-1.17-5.56,0-1.7.18-3.23.55-4.6.02-.08.04-.16.06-.24.06-.22.13-.44.21-.66,0-.02.01-.04.02-.06.07-.23.15-.45.24-.66.05-.14.11-.28.18-.42.04-.11.09-.22.14-.32.06-.15.13-.3.22-.44.08-.17.17-.33.26-.48.14-.24.28-.46.43-.68.74-1.04,1.7-1.95,2.89-2.72.24-.15.48-.3.73-.44.2-.11.4-.23.61-.33.14-.08.28-.15.43-.22.17-.09.35-.17.53-.25.32-.14.65-.27.98-.4.2-.08.4-.16.6-.23,1.4-.48,3.06-.87,4.98-1.16.62-.1,1.25-.18,1.88-.26.06-.01.13-.02.2-.02.59-.07,1.19-.13,1.79-.18.02-.01.05-.01.07-.01.19-.02.39-.03.58-.05.46-.03.92-.06,1.39-.09.56-.03,1.14-.06,1.74-.08,1.57-.06,3.29-.09,5.17-.09h26.5v7.9c0,2.95-1.22,4.42-3.68,4.42h-21.77c-1.87,0-3.39.02-4.55.04-1.16.02-2.28.07-3.36.13-.62.04-1.15.09-1.6.15-.34.04-.63.09-.88.14-.57.12-1.08.29-1.53.49-.45.2-.76.45-.92.74-.15.29-.23.65-.23,1.08,0,.54.22,1.01.66,1.41.15.13.31.25.5.36.78.47,1.83.79,3.16.98,1.33.2,2.88.36,4.66.49,1.78.14,3.67.23,5.67.27,2.01.05,4.06.18,6.16.39,2.11.22,4.16.48,6.17.78,2,.3,3.89.8,5.67,1.48,1.78.69,3.33,1.52,4.66,2.49,1.33.96,2.38,2.23,3.16,3.8.77,1.56,1.16,3.35,1.16,5.38Z"/>
    <path class="cls-1" d="M164.72,456.32c0,1.71-.15,3.25-.45,4.63-.31,1.37-.79,2.57-1.46,3.61-.66,1.04-1.41,1.94-2.26,2.72-.84.77-1.89,1.43-3.14,1.96-1.25.53-2.53.96-3.83,1.31-1.31.35-2.85.62-4.64.8-1.79.18-3.54.3-5.24.37-1.7.07-3.66.1-5.89.1h-30.29v-7.87c0-2.97,1.23-4.45,3.68-4.45h25.56c2.01,0,3.6-.02,4.8-.04,1.19-.02,2.33-.07,3.43-.15,1.09-.08,1.9-.18,2.43-.31.53-.12,1-.31,1.41-.57.42-.26.69-.55.82-.88.12-.32.18-.73.18-1.23,0-.7-.39-1.25-1.16-1.67-.78-.42-1.83-.7-3.16-.86-1.33-.16-2.88-.29-4.66-.41-1.78-.11-3.66-.18-5.66-.22-1.99-.03-4.04-.15-6.16-.37-2.12-.21-4.17-.47-6.16-.77-1.99-.31-3.88-.82-5.66-1.52-.34-.13-.66-.27-.98-.42-.38-.16-.74-.34-1.1-.53h-.01s-.1-.05-.14-.08c-.19-.09-.37-.19-.54-.3-.23-.12-.45-.25-.66-.39-.15-.09-.29-.18-.43-.27-.1-.07-.2-.13-.29-.2-.17-.12-.34-.24-.51-.36-.2-.15-.39-.31-.58-.47-.15-.13-.3-.27-.44-.42h-.01c-.09-.08-.18-.17-.26-.26-.19-.2-.36-.4-.53-.62-.16-.19-.3-.39-.44-.59-.1-.15-.2-.3-.29-.45-.22-.35-.42-.71-.6-1.09-.78-1.61-1.17-3.46-1.17-5.56,0-1.7.18-3.23.55-4.6.02-.08.04-.16.06-.24.06-.22.13-.44.21-.66,0-.02.01-.04.02-.06.07-.23.15-.45.24-.66.05-.14.11-.28.18-.42.04-.11.09-.22.14-.32.06-.15.13-.3.22-.44.08-.17.17-.33.26-.48.14-.24.28-.46.43-.68.74-1.04,1.7-1.95,2.89-2.72.24-.15.48-.3.73-.44.2-.11.4-.23.61-.33.14-.08.28-.15.43-.22.17-.09.35-.17.53-.25.32-.14.65-.27.98-.4.2-.08.4-.16.6-.23,1.4-.48,3.06-.87,4.98-1.16.62-.1,1.25-.18,1.88-.26.06-.01.13-.02.2-.02.59-.07,1.19-.13,1.79-.18.02-.01.05-.01.07-.01.19-.02.39-.03.58-.05.46-.03.92-.06,1.39-.09.56-.03,1.14-.06,1.74-.08,1.57-.06,3.29-.09,5.17-.09h26.5v7.9c0,2.95-1.22,4.42-3.68,4.42h-21.77c-1.87,0-3.39.02-4.55.04-1.16.02-2.28.07-3.36.13-.62.04-1.15.09-1.6.15-.34.04-.63.09-.88.14-.57.12-1.08.29-1.53.49-.45.2-.76.45-.92.74-.15.29-.23.65-.23,1.08,0,.54.22,1.01.66,1.41.15.13.31.25.5.36.78.47,1.83.79,3.16.98,1.33.2,2.88.36,4.66.49,1.78.14,3.67.23,5.67.27,2.01.05,4.06.18,6.16.39,2.11.22,4.16.48,6.17.78,2,.3,3.89.8,5.67,1.48,1.78.69,3.33,1.52,4.66,2.49,1.33.96,2.38,2.23,3.16,3.8.77,1.56,1.16,3.35,1.16,5.38Z"/>
    <path class="cls-1" d="M164.72,456.32c0,1.71-.15,3.25-.45,4.63-.31,1.37-.79,2.57-1.46,3.61-.66,1.04-1.41,1.94-2.26,2.72-.84.77-1.89,1.43-3.14,1.96-1.25.53-2.53.96-3.83,1.31-1.31.35-2.85.62-4.64.8-1.79.18-3.54.3-5.24.37-1.7.07-3.66.1-5.89.1h-30.29v-7.87c0-2.97,1.23-4.45,3.68-4.45h25.56c2.01,0,3.6-.02,4.8-.04,1.19-.02,2.33-.07,3.43-.15,1.09-.08,1.9-.18,2.43-.31.53-.12,1-.31,1.41-.57.42-.26.69-.55.82-.88.12-.32.18-.73.18-1.23,0-.7-.39-1.25-1.16-1.67-.78-.42-1.83-.7-3.16-.86-1.33-.16-2.88-.29-4.66-.41-1.78-.11-3.66-.18-5.66-.22-1.99-.03-4.04-.15-6.16-.37-2.12-.21-4.17-.47-6.16-.77-1.99-.31-3.88-.82-5.66-1.52-.34-.13-.66-.27-.98-.42-.38-.16-.74-.34-1.1-.53h-.01s-.1-.05-.14-.08c-.19-.09-.37-.19-.54-.3-.23-.12-.45-.25-.66-.39-.15-.09-.29-.18-.43-.27-.1-.07-.2-.13-.29-.2-.17-.12-.34-.24-.51-.36-.2-.15-.39-.31-.58-.47-.15-.13-.3-.27-.44-.42h-.01c-.09-.08-.18-.17-.26-.26-.19-.2-.36-.4-.53-.62-.16-.19-.3-.39-.44-.59-.1-.15-.2-.3-.29-.45-.22-.35-.42-.71-.6-1.09-.78-1.61-1.17-3.46-1.17-5.56,0-1.7.18-3.23.55-4.6.02-.08.04-.16.06-.24.06-.22.13-.44.21-.66,0-.02.01-.04.02-.06.07-.23.15-.45.24-.66.05-.14.11-.28.18-.42.04-.11.09-.22.14-.32.06-.15.13-.3.22-.44.08-.17.17-.33.26-.48.14-.24.28-.46.43-.68.74-1.04,1.7-1.95,2.89-2.72.24-.15.48-.3.73-.44.2-.11.4-.23.61-.33.14-.08.28-.15.43-.22.17-.09.35-.17.53-.25.32-.14.65-.27.98-.4.2-.08.4-.16.6-.23,1.4-.48,3.06-.87,4.98-1.16.62-.1,1.25-.18,1.88-.26.06-.01.13-.02.2-.02.59-.07,1.19-.13,1.79-.18.02-.01.05-.01.07-.01.19-.02.39-.03.58-.05.46-.03.92-.06,1.39-.09.56-.03,1.14-.06,1.74-.08,1.57-.06,3.29-.09,5.17-.09h26.5v7.9c0,2.95-1.22,4.42-3.68,4.42h-21.77c-1.87,0-3.39.02-4.55.04-1.16.02-2.28.07-3.36.13-.62.04-1.15.09-1.6.15-.34.04-.63.09-.88.14-.57.12-1.08.29-1.53.49-.45.2-.76.45-.92.74-.15.29-.23.65-.23,1.08,0,.54.22,1.01.66,1.41.15.13.31.25.5.36.78.47,1.83.79,3.16.98,1.33.2,2.88.36,4.66.49,1.78.14,3.67.23,5.67.27,2.01.05,4.06.18,6.16.39,2.11.22,4.16.48,6.17.78,2,.3,3.89.8,5.67,1.48,1.78.69,3.33,1.52,4.66,2.49,1.33.96,2.38,2.23,3.16,3.8.77,1.56,1.16,3.35,1.16,5.38Z"/>
    <path class="cls-1" d="M163.56,450.94c-.78-1.57-1.83-2.84-3.16-3.8-1.33-.97-2.88-1.8-4.66-2.49-1.78-.68-3.67-1.18-5.67-1.48-2.01-.3-4.06-.56-6.17-.78-2.1-.21-4.15-.34-6.16-.39-2-.04-3.89-.13-5.67-.27-1.78-.13-3.33-.29-4.66-.49-1.33-.19-2.38-.51-3.16-.98-.19-.11-.35-.23-.5-.36-.44-.4-.66-.87-.66-1.41,0-.43.08-.79.23-1.08.16-.29.47-.54.92-.74.45-.2.96-.37,1.53-.49.25-.05.54-.1.88-.14.45-.06.98-.11,1.6-.15,1.08-.06,2.2-.11,3.36-.13,1.16-.02,2.68-.04,4.55-.04h21.77c2.46,0,3.68-1.47,3.68-4.42v-7.9h-26.5c-1.88,0-3.6.03-5.17.09-.6.02-1.18.05-1.74.08-.47.03-.93.06-1.39.09-.19.02-.39.03-.58.05-.02,0-.05,0-.07.01-.6.05-1.2.11-1.79.18-.07,0-.14.01-.2.02-.63.08-1.26.16-1.88.26-1.92.29-3.58.68-4.98,1.16-.2.07-.4.15-.6.23-.33.13-.66.26-.98.4-.18.08-.36.16-.53.25-.15.07-.29.14-.43.22-.21.1-.41.22-.61.33-.25.14-.49.29-.73.44-1.19.77-2.15,1.68-2.89,2.72-.15.22-.29.44-.43.68-.09.15-.18.31-.26.48-.09.14-.16.29-.22.44-.05.1-.1.21-.14.32-.07.14-.13.28-.18.42-.09.21-.17.43-.24.66-.01.02-.02.04-.02.06-.08.22-.15.44-.21.66-.02.08-.04.16-.06.24-.37,1.37-.55,2.9-.55,4.6,0,2.1.39,3.95,1.17,5.56.18.38.38.74.6,1.09.09.15.19.3.29.45.14.2.28.4.44.59.17.22.34.42.53.62.08.09.17.18.26.25h.01c.14.16.29.3.44.43.19.16.38.32.58.47.17.12.34.24.51.36.09.07.19.13.29.2.14.09.28.18.43.27.21.14.43.27.66.39.17.11.35.21.54.3.04.03.09.05.14.08h.01c.36.19.72.37,1.1.53.32.15.64.29.98.42,1.78.7,3.67,1.21,5.66,1.52,1.99.3,4.04.56,6.16.77,2.12.22,4.17.34,6.16.37,2,.04,3.88.11,5.66.22,1.78.12,3.33.25,4.66.41,1.33.16,2.38.44,3.16.86.77.42,1.16.97,1.16,1.67,0,.5-.06.91-.18,1.23-.13.33-.4.62-.82.88-.41.26-.88.45-1.41.57-.53.13-1.34.23-2.43.31-1.1.08-2.24.13-3.43.15-1.2.02-2.79.04-4.8.04h-25.56c-2.45,0-3.68,1.48-3.68,4.45v7.87h30.29c2.23,0,4.19-.03,5.89-.1,1.7-.07,3.45-.19,5.24-.37,1.79-.18,3.33-.45,4.64-.8,1.3-.35,2.58-.78,3.83-1.31,1.25-.53,2.3-1.19,3.14-1.96.85-.78,1.6-1.68,2.26-2.72.67-1.04,1.15-2.24,1.46-3.61.3-1.38.45-2.92.45-4.63,0-2.03-.39-3.82-1.16-5.38Z"/>
    <path class="cls-1" d="M302.86,423.4v44c0,2.95-1.23,4.42-3.68,4.42h-10.17v-18.2h-31.47v13.78c0,2.95-1.21,4.42-3.64,4.42h-10.17v-44c0-2.95,1.22-4.42,3.65-4.42h10.16v17.93h31.47v-13.51c0-2.95,1.23-4.42,3.69-4.42h10.16Z"/>
    <path class="cls-1" d="M302.86,423.4v44c0,2.95-1.23,4.42-3.68,4.42h-10.17v-18.2h-31.47v13.78c0,2.95-1.21,4.42-3.64,4.42h-10.17v-44c0-2.95,1.22-4.42,3.65-4.42h10.16v17.93h31.47v-13.51c0-2.95,1.23-4.42,3.69-4.42h10.16Z"/>
    <path class="cls-1" d="M302.86,423.4v44c0,2.95-1.23,4.42-3.68,4.42h-10.17v-18.2h-31.47v13.78c0,2.95-1.21,4.42-3.64,4.42h-10.17v-44c0-2.95,1.22-4.42,3.65-4.42h10.16v17.93h31.47v-13.51c0-2.95,1.23-4.42,3.69-4.42h10.16Z"/>
    <path class="cls-1" d="M292.7,423.4c-2.46,0-3.69,1.47-3.69,4.42v13.51h-31.47v-17.93h-10.16c-2.43,0-3.65,1.47-3.65,4.42v44h10.17c2.43,0,3.64-1.47,3.64-4.42v-13.78h31.47v18.2h10.17c2.45,0,3.68-1.47,3.68-4.42v-44h-10.16Z"/>
    <path class="cls-1" d="M449.06,438.07c-1.3-3-3.12-5.64-5.47-7.92-2.34-2.27-5.27-4.08-8.79-5.42-3.52-1.34-7.38-2.01-11.57-2.01h-14.18c-4.18,0-8.04.67-11.56,2.01-3.53,1.34-6.46,3.15-8.82,5.42-2.35,2.28-4.18,4.92-5.5,7.92-1.32,3.01-1.97,6.18-1.97,9.54s.65,6.53,1.97,9.54c1.32,3,3.15,5.64,5.5,7.92,2.36,2.27,5.29,4.08,8.82,5.42,3.52,1.33,7.38,2.01,11.56,2.01h14.18c4.19,0,8.04-.66,11.55-1.96,3.51-1.31,6.45-3.08,8.8-5.32,2.35-2.24,4.18-4.88,5.48-7.9,1.31-3.03,1.96-6.27,1.96-9.71s-.65-6.53-1.96-9.54ZM432.37,456.54c-2.53,2.44-5.93,3.66-10.18,3.66h-12.09c-2.16,0-4.14-.33-5.93-1.01-1.79-.67-3.27-1.59-4.44-2.75-1.17-1.16-2.07-2.5-2.72-4.02-.64-1.52-.96-3.12-.96-4.81s.32-3.29.96-4.81c.65-1.52,1.55-2.86,2.72-4.02,1.17-1.16,2.65-2.08,4.44-2.75,1.79-.68,3.77-1.02,5.93-1.02h12.09c4.25,0,7.65,1.23,10.18,3.67,2.53,2.44,3.8,5.42,3.8,8.93s-1.27,6.49-3.8,8.93Z"/>
    <path class="cls-1" d="M449.06,438.07c-1.3-3-3.12-5.64-5.47-7.92-2.34-2.27-5.27-4.08-8.79-5.42-3.52-1.34-7.38-2.01-11.57-2.01h-14.18c-4.18,0-8.04.67-11.56,2.01-3.53,1.34-6.46,3.15-8.82,5.42-2.35,2.28-4.18,4.92-5.5,7.92-1.32,3.01-1.97,6.18-1.97,9.54s.65,6.53,1.97,9.54c1.32,3,3.15,5.64,5.5,7.92,2.36,2.27,5.29,4.08,8.82,5.42,3.52,1.33,7.38,2.01,11.56,2.01h14.18c4.19,0,8.04-.66,11.55-1.96,3.51-1.31,6.45-3.08,8.8-5.32,2.35-2.24,4.18-4.88,5.48-7.9,1.31-3.03,1.96-6.27,1.96-9.71s-.65-6.53-1.96-9.54ZM432.37,456.54c-2.53,2.44-5.93,3.66-10.18,3.66h-12.09c-2.16,0-4.14-.33-5.93-1.01-1.79-.67-3.27-1.59-4.44-2.75-1.17-1.16-2.07-2.5-2.72-4.02-.64-1.52-.96-3.12-.96-4.81s.32-3.29.96-4.81c.65-1.52,1.55-2.86,2.72-4.02,1.17-1.16,2.65-2.08,4.44-2.75,1.79-.68,3.77-1.02,5.93-1.02h12.09c4.25,0,7.65,1.23,10.18,3.67,2.53,2.44,3.8,5.42,3.8,8.93s-1.27,6.49-3.8,8.93Z"/>
    <path class="cls-1" d="M449.06,438.07c-1.3-3-3.12-5.64-5.47-7.92-2.34-2.27-5.27-4.08-8.79-5.42-3.52-1.34-7.38-2.01-11.57-2.01h-14.18c-4.18,0-8.04.67-11.56,2.01-3.53,1.34-6.46,3.15-8.82,5.42-2.35,2.28-4.18,4.92-5.5,7.92-1.32,3.01-1.97,6.18-1.97,9.54s.65,6.53,1.97,9.54c1.32,3,3.15,5.64,5.5,7.92,2.36,2.27,5.29,4.08,8.82,5.42,3.52,1.33,7.38,2.01,11.56,2.01h14.18c4.19,0,8.04-.66,11.55-1.96,3.51-1.31,6.45-3.08,8.8-5.32,2.35-2.24,4.18-4.88,5.48-7.9,1.31-3.03,1.96-6.27,1.96-9.71s-.65-6.53-1.96-9.54ZM432.37,456.54c-2.53,2.44-5.93,3.66-10.18,3.66h-12.09c-2.16,0-4.14-.33-5.93-1.01-1.79-.67-3.27-1.59-4.44-2.75-1.17-1.16-2.07-2.5-2.72-4.02-.64-1.52-.96-3.12-.96-4.81s.32-3.29.96-4.81c.65-1.52,1.55-2.86,2.72-4.02,1.17-1.16,2.65-2.08,4.44-2.75,1.79-.68,3.77-1.02,5.93-1.02h12.09c4.25,0,7.65,1.23,10.18,3.67,2.53,2.44,3.8,5.42,3.8,8.93s-1.27,6.49-3.8,8.93Z"/>
    <path class="cls-1" d="M449.06,438.07c-1.3-3-3.12-5.64-5.47-7.92-2.34-2.27-5.27-4.08-8.79-5.42-3.52-1.34-7.38-2.01-11.57-2.01h-14.18c-4.18,0-8.04.67-11.56,2.01-3.53,1.34-6.46,3.15-8.82,5.42-2.35,2.28-4.18,4.92-5.5,7.92-1.32,3.01-1.97,6.18-1.97,9.54s.65,6.53,1.97,9.54c1.32,3,3.15,5.64,5.5,7.92,2.36,2.27,5.29,4.08,8.82,5.42,3.52,1.33,7.38,2.01,11.56,2.01h14.18c4.19,0,8.04-.66,11.55-1.96,3.51-1.31,6.45-3.08,8.8-5.32,2.35-2.24,4.18-4.88,5.48-7.9,1.31-3.03,1.96-6.27,1.96-9.71s-.65-6.53-1.96-9.54ZM432.37,456.54c-2.53,2.44-5.93,3.66-10.18,3.66h-12.09c-2.16,0-4.14-.33-5.93-1.01-1.79-.67-3.27-1.59-4.44-2.75-1.17-1.16-2.07-2.5-2.72-4.02-.64-1.52-.96-3.12-.96-4.81s.32-3.29.96-4.81c.65-1.52,1.55-2.86,2.72-4.02,1.17-1.16,2.65-2.08,4.44-2.75,1.79-.68,3.77-1.02,5.93-1.02h12.09c4.25,0,7.65,1.23,10.18,3.67,2.53,2.44,3.8,5.42,3.8,8.93s-1.27,6.49-3.8,8.93Z"/>
    <path class="cls-1" d="M589.28,433.71c-.85-1.92-2.03-3.53-3.56-4.82-1.53-1.3-3.46-2.36-5.79-3.18s-4.9-1.41-7.69-1.77c-2.79-.36-5.95-.54-9.48-.54h-29.75c-2.43,0-3.65,1.47-3.65,4.42v44h9.83c2.43,0,3.64-1.47,3.64-4.42v-9.56h19.93c4.39,0,8.25-.32,11.59-.96,3.35-.64,6.24-1.64,8.7-3.01,2.45-1.36,4.32-3.17,5.59-5.43,1.27-2.27,1.91-4.96,1.91-8.09,0-2.5-.43-4.71-1.27-6.64ZM572.63,444.47c-2.04.72-5.68,1.08-10.92,1.08h-18.88v-9.83h18.88c5.13,0,8.74.35,10.84,1.03,2.09.69,3.14,1.89,3.14,3.6,0,2.02-1.02,3.4-3.06,4.12Z"/>
    <path class="cls-1" d="M589.28,433.71c-.85-1.92-2.03-3.53-3.56-4.82-1.53-1.3-3.46-2.36-5.79-3.18s-4.9-1.41-7.69-1.77c-2.79-.36-5.95-.54-9.48-.54h-29.75c-2.43,0-3.65,1.47-3.65,4.42v44h9.83c2.43,0,3.64-1.47,3.64-4.42v-9.56h19.93c4.39,0,8.25-.32,11.59-.96,3.35-.64,6.24-1.64,8.7-3.01,2.45-1.36,4.32-3.17,5.59-5.43,1.27-2.27,1.91-4.96,1.91-8.09,0-2.5-.43-4.71-1.27-6.64ZM572.63,444.47c-2.04.72-5.68,1.08-10.92,1.08h-18.88v-9.83h18.88c5.13,0,8.74.35,10.84,1.03,2.09.69,3.14,1.89,3.14,3.6,0,2.02-1.02,3.4-3.06,4.12Z"/>
    <path class="cls-1" d="M589.28,433.71c-.85-1.92-2.03-3.53-3.56-4.82-1.53-1.3-3.46-2.36-5.79-3.18s-4.9-1.41-7.69-1.77c-2.79-.36-5.95-.54-9.48-.54h-29.75c-2.43,0-3.65,1.47-3.65,4.42v44h9.83c2.43,0,3.64-1.47,3.64-4.42v-9.56h19.93c4.39,0,8.25-.32,11.59-.96,3.35-.64,6.24-1.64,8.7-3.01,2.45-1.36,4.32-3.17,5.59-5.43,1.27-2.27,1.91-4.96,1.91-8.09,0-2.5-.43-4.71-1.27-6.64ZM572.63,444.47c-2.04.72-5.68,1.08-10.92,1.08h-18.88v-9.83h18.88c5.13,0,8.74.35,10.84,1.03,2.09.69,3.14,1.89,3.14,3.6,0,2.02-1.02,3.4-3.06,4.12Z"/>
    <path class="cls-1" d="M589.28,433.71c-.85-1.92-2.03-3.53-3.56-4.82-1.53-1.3-3.46-2.36-5.79-3.18s-4.9-1.41-7.69-1.77c-2.79-.36-5.95-.54-9.48-.54h-29.75c-2.43,0-3.65,1.47-3.65,4.42v44h9.83c2.43,0,3.64-1.47,3.64-4.42v-9.56h19.93c4.39,0,8.25-.32,11.59-.96,3.35-.64,6.24-1.64,8.7-3.01,2.45-1.36,4.32-3.17,5.59-5.43,1.27-2.27,1.91-4.96,1.91-8.09,0-2.5-.43-4.71-1.27-6.64ZM572.63,444.47c-2.04.72-5.68,1.08-10.92,1.08h-18.88v-9.83h18.88c5.13,0,8.74.35,10.84,1.03,2.09.69,3.14,1.89,3.14,3.6,0,2.02-1.02,3.4-3.06,4.12Z"/>
  </g>
  <path class="cls-1" d="M674.17,460.41h-54.73c-3.37,0-6.08,2.72-6.08,6.08s2.71,6.09,6.08,6.09h54.73c3.37,0,6.08-2.72,6.08-6.09s-2.71-6.08-6.08-6.08Z"/>
  <path class="cls-1" d="M310.85,51.91c-5.34-5.35-14.03-5.35-19.37,0l-47.91,47.9c-5.34,5.35-5.34,14.03,0,19.38l15.09,15.08h38.73l-24.77-24.75,38.23-38.24c5.35-5.34,5.35-14.03,0-19.37ZM509.27,99.85l-47.9-47.9c-5.34-5.34-14.02-5.35-19.36-.02-5.32,5.35-5.31,14.02.02,19.35l38.2,38.24-24.76,24.75h38.76l15.04-15.04c5.34-5.35,5.34-14.02,0-19.38ZM406.56.54c-7.27-2.1-14.84,2.14-16.94,9.41l-35.51,124.32h4.85c8.64,0,16.2,4.66,20.33,11.59l36.68-128.38c2.1-7.27-2.14-14.85-9.41-16.94Z"/>
  <path class="cls-2" d="M671.79,151.08h-13.83l-8.04,53.19c-.66,4.33.01,8.56,1.69,12.27h20.18c3.56,0,6.44-2.88,6.44-6.44v-52.58c0-3.56-2.88-6.44-6.44-6.44ZM788.83,114.65l-100.93-15.26c-11.95-1.8-23.09,6.42-24.9,18.36l-3.53,23.33h12.32c9.06,0,16.44,7.38,16.44,16.44v3.04c1.5-1.09,3.4-1.61,5.37-1.31l7.21,1.09c3.98.6,6.72,4.32,6.12,8.3-.61,3.98-4.32,6.72-8.3,6.12l-7.21-1.09c-1.19-.18-2.28-.64-3.19-1.31v15.65c.34,0,.67.03,1.01.08l36.04,5.45c3.99.6,6.72,4.31,6.12,8.3-.6,3.98-4.31,6.72-8.3,6.12l-34.87-5.27v7.41c0,9.06-7.38,16.44-16.44,16.44h-11.07c2.27,1.3,4.82,2.21,7.56,2.62l100.93,15.26c11.94,1.81,23.09-6.41,24.9-18.36l13.08-86.51c1.8-11.94-6.42-23.09-18.36-24.9ZM695.78,144.83c-3.99-.6-6.72-4.32-6.12-8.3.6-3.98,4.31-6.72,8.3-6.12l36.04,5.45c3.98.6,6.72,4.32,6.12,8.3-.6,3.98-4.32,6.72-8.3,6.12l-36.04-5.45ZM767.45,207.29c-.6,3.98-4.32,6.72-8.3,6.12l-14.42-2.18c-3.98-.61-6.72-4.32-6.12-8.3.6-3.99,4.32-6.73,8.3-6.12l14.42,2.18c3.98.6,6.72,4.31,6.12,8.3ZM771.81,178.45c-.6,3.98-4.32,6.72-8.3,6.12l-43.26-6.54c-3.98-.6-6.72-4.32-6.12-8.3.61-3.98,4.32-6.72,8.3-6.12l43.26,6.54c3.98.6,6.72,4.32,6.12,8.3ZM776.17,149.61c-.6,3.98-4.32,6.72-8.3,6.12l-14.42-2.18c-3.98-.6-6.72-4.32-6.12-8.3.6-3.98,4.32-6.72,8.3-6.12l14.42,2.18c3.98.6,6.72,4.32,6.12,8.3Z"/>
  <g>
    <path class="cls-1" d="M79.68,421.81c-.39-.61-1.01-1.05-1.72-1.21l-6.43-1.42c-.07-4.33-1-8.51-2.76-12.42l4.98-4.03c1.18-.96,1.36-2.7.4-3.88l-6.23-7.7c-.46-.57-1.13-.93-1.86-1.01-.72-.08-1.45.14-2.02.6l-4.84,3.93c-3.43-2.63-7.28-4.5-11.45-5.55v-6.15c0-1.52-1.23-2.75-2.76-2.75h-9.9c-1.52,0-2.76,1.23-2.76,2.75v6.16c-4.25,1.07-8.17,2.99-11.65,5.71l-4.89-3.89c-.57-.45-1.3-.66-2.03-.58-.73.08-1.39.45-1.85,1.03l-6.16,7.75c-.95,1.19-.75,2.93.44,3.88l5.02,3.99c-.86,1.96-1.51,3.99-1.95,6.07-.45,2.07-.67,4.2-.69,6.36l-6.44,1.48c-1.48.35-2.41,1.83-2.06,3.31l2.22,9.66c.35,1.48,1.83,2.41,3.31,2.06l6.64-1.53c1.97,3.7,4.61,6.92,7.85,9.58l-2.99,6.27c-.66,1.38-.08,3.02,1.3,3.68l8.94,4.27c.37.17.78.26,1.19.26.31,0,.62-.05.92-.15.69-.25,1.25-.75,1.57-1.42l3.03-6.35c4.03.77,8.23.76,12.25-.05l3.08,6.32c.67,1.37,2.32,1.94,3.69,1.28l8.9-4.35c1.37-.66,1.94-2.32,1.27-3.68l-3.04-6.24c3.22-2.69,5.84-5.94,7.78-9.66l6.63,1.48c1.49.32,2.96-.61,3.29-2.1l2.15-9.68c.16-.71.03-1.46-.37-2.08ZM40.05,431.81c-6.7,0-12.15-5.45-12.15-12.15s5.45-12.16,12.15-12.16,12.15,5.45,12.15,12.16-5.45,12.15-12.15,12.15Z"/>
    <path class="cls-1" d="M93.81,384.41v-3.81c-.22.03-.46.04-.69.04-4.19,0-7.6-3.41-7.6-7.6s3.41-7.6,7.6-7.6c.23,0,.47.01.69.04v-17.11h-2.77c-1.52,0-2.76,1.24-2.76,2.76v2.82c-2.66.67-5.1,1.87-7.28,3.57l-2.25-1.79c-1.19-.95-2.93-.75-3.88.44l-2.57,3.24c-.45.57-.66,1.3-.58,2.03.09.72.45,1.39,1.03,1.84l2.33,1.86c-1.08,2.45-1.64,5.07-1.65,7.77l-3.02.7c-.72.16-1.33.6-1.72,1.22-.39.62-.51,1.37-.35,2.09l.93,4.02c.35,1.49,1.83,2.41,3.31,2.07l3.14-.73c1.24,2.31,2.89,4.33,4.91,5.99l-1.42,2.99c-.32.66-.36,1.42-.11,2.11.24.69.75,1.26,1.41,1.57l3.72,1.78c.39.18.8.27,1.19.27,1.03,0,2.02-.58,2.5-1.57l1.45-3.05c2.17.42,4.41.47,6.59.15-1.37-2.4-2.15-5.16-2.15-8.11ZM115.81,373.41l-3.01-.67c-.04-2.7-.62-5.32-1.72-7.77l2.3-1.86c.57-.46.93-1.13,1.01-1.86.08-.73-.14-1.46-.6-2.02l-2.6-3.21c-.96-1.19-2.7-1.37-3.88-.41l-2.23,1.8c-.41-.32-.84-.62-1.27-.89v27.89c0,2.11,1.02,3.99,2.59,5.14l-.68-1.38c2.01-1.68,3.65-3.71,4.86-6.04l3.15.7c1.48.32,2.96-.61,3.29-2.1l.89-4.03c.33-1.49-.61-2.96-2.1-3.29Z"/>
    <path class="cls-1" d="M129.34,426.11l-3.01-.67c0-.58-.04-1.16-.1-1.73-.02,0-.05,0-.07.01-.6.05-1.2.11-1.79.18-.07,0-.14.01-.2.02-.63.08-1.26.16-1.88.26-1.92.29-3.58.68-4.98,1.16-.2.07-.4.15-.6.23-.33.13-.66.26-.98.4-.18.08-.36.16-.53.25-.15.07-.29.14-.43.22-.21.1-.41.22-.61.33-.38,2.88-2.4,5.26-5.09,6.16-.01.02-.02.04-.02.06-.08.22-.15.44-.21.66-.02.08-.04.16-.06.24-.37,1.37-.55,2.9-.55,4.6,0,2.1.39,3.95,1.17,5.56.18.38.38.74.6,1.09.19-.03.37-.06.55-.1l.97,2.01h.01c.14.16.29.3.44.43.19.16.38.32.58.47.17.12.34.24.51.36.09.07.19.13.29.2.14.09.28.18.43.27.21.14.43.27.66.39.17.11.35.21.54.3.04.03.09.05.14.08h.01c.2-.05.39-.12.58-.21l3.71-1.81c.66-.32,1.16-.89,1.4-1.58.24-.69.19-1.45-.13-2.11l-1.45-2.97c2.01-1.67,3.65-3.71,4.86-6.04l3.14.7c.72.16,1.47.03,2.08-.37.62-.39,1.05-1.01,1.21-1.73l.9-4.03c.33-1.49-.61-2.96-2.09-3.29ZM127.32,411.93l-2.6-3.21c-.96-1.19-2.7-1.37-3.88-.41l-2.23,1.8c-2.14-1.64-4.55-2.81-7.15-3.46v-2.81c0-1.53-1.24-2.76-2.76-2.76h-4.13c-1.52,0-2.76,1.23-2.76,2.76v2.81c-2.66.67-5.11,1.87-7.28,3.57l-2.25-1.79c-.58-.45-1.3-.66-2.03-.58-.73.09-1.4.45-1.85,1.03l-2.57,3.23c-.95,1.19-.75,2.93.44,3.88l2.33,1.85c-1.07,2.46-1.63,5.08-1.65,7.77l-3.02.7c-.71.17-1.33.6-1.72,1.23-.38.62-.51,1.37-.34,2.08l.93,4.02c.34,1.49,1.83,2.41,3.3,2.07l3.15-.72c1.23,2.31,2.88,4.32,4.91,5.98l-1.43,2.99c-.32.67-.36,1.42-.11,2.11s.75,1.26,1.41,1.57l3.73,1.78c.38.18.78.27,1.18.27.65,0,1.28-.23,1.78-.65-.12-.23-.24-.46-.35-.69-1.41-2.91-2.14-6.25-2.14-9.86,0-2.54.29-4.94.87-7.11l.11-.42c.18-.65.39-1.28.61-1.89-.5-1-.78-2.13-.78-3.33,0-4.19,3.41-7.6,7.6-7.6.7,0,1.38.1,2.02.28,1.44-.87,2.91-1.59,4.42-2.17.31-.12.61-.24.91-.34,2.06-.71,4.32-1.24,6.81-1.62,2.17-.34,4.5-.58,6.86-.71.09,0,.18-.01.28-.01-.02-.59-.24-1.18-.62-1.64Z"/>
  </g>
</svg>